<?xml version="1.0" encoding="UTF-8"?>
<svg xmlns="http://www.w3.org/2000/svg" width="24" height="24" viewBox="0 0 24 24">
 <g id="Notes"/>
 <g id="Guides">
  <line id="Capline-S" x1="2" y1="3" x2="22" y2="3" stroke="#27AAE1" stroke-width="0.05"/>
  <line id="Baseline-S" x1="2" y1="21" x2="22" y2="21" stroke="#27AAE1" stroke-width="0.05"/>
  <line id="Capline-M" x1="2" y1="3" x2="22" y2="3" stroke="#27AAE1" stroke-width="0.05"/>
  <line id="Baseline-M" x1="2" y1="21" x2="22" y2="21" stroke="#27AAE1" stroke-width="0.05"/>
  <line id="Capline-L" x1="2" y1="3" x2="22" y2="3" stroke="#27AAE1" stroke-width="0.05"/>
  <line id="Baseline-L" x1="2" y1="21" x2="22" y2="21" stroke="#27AAE1" stroke-width="0.05"/>
 </g>
 <g id="Symbols" fill="#000000">
  <g id="Regular-S"><path d="M 7.12 19.80 A 9.2 9.2 0 1 1 16.88 19.80 A 1.2 1.2 0 0 1 15.61 17.77 A 6.8 6.8 0 1 0 8.39 17.77 A 1.2 1.2 0 0 1 7.12 19.80 Z"/><path d="M14.04 20.16 17.30 20.48 15.18 17.08 Z"/><path d="M 7.91 13.01 L 9.91 15.21 A 1.2 1.2 0 0 0 11.69 13.59 L 9.69 11.39 A 1.2 1.2 0 0 0 7.91 13.01 Z"/><path d="M 11.70 15.19 L 16.10 10.19 A 1.2 1.2 0 0 0 14.30 8.61 L 9.90 13.61 A 1.2 1.2 0 0 0 11.70 15.19 Z"/><path d="M 9.6 14.4 A 1.2 1.2 0 1 0 12 14.4 A 1.2 1.2 0 1 0 9.6 14.4 Z"/></g>
  <g id="Regular-M"><path d="M 7.12 19.80 A 9.2 9.2 0 1 1 16.88 19.80 A 1.2 1.2 0 0 1 15.61 17.77 A 6.8 6.8 0 1 0 8.39 17.77 A 1.2 1.2 0 0 1 7.12 19.80 Z"/><path d="M14.04 20.16 17.30 20.48 15.18 17.08 Z"/><path d="M 7.91 13.01 L 9.91 15.21 A 1.2 1.2 0 0 0 11.69 13.59 L 9.69 11.39 A 1.2 1.2 0 0 0 7.91 13.01 Z"/><path d="M 11.70 15.19 L 16.10 10.19 A 1.2 1.2 0 0 0 14.30 8.61 L 9.90 13.61 A 1.2 1.2 0 0 0 11.70 15.19 Z"/><path d="M 9.6 14.4 A 1.2 1.2 0 1 0 12 14.4 A 1.2 1.2 0 1 0 9.6 14.4 Z"/></g>
  <g id="Regular-L"><path d="M 7.12 19.80 A 9.2 9.2 0 1 1 16.88 19.80 A 1.2 1.2 0 0 1 15.61 17.77 A 6.8 6.8 0 1 0 8.39 17.77 A 1.2 1.2 0 0 1 7.12 19.80 Z"/><path d="M14.04 20.16 17.30 20.48 15.18 17.08 Z"/><path d="M 7.91 13.01 L 9.91 15.21 A 1.2 1.2 0 0 0 11.69 13.59 L 9.69 11.39 A 1.2 1.2 0 0 0 7.91 13.01 Z"/><path d="M 11.70 15.19 L 16.10 10.19 A 1.2 1.2 0 0 0 14.30 8.61 L 9.90 13.61 A 1.2 1.2 0 0 0 11.70 15.19 Z"/><path d="M 9.6 14.4 A 1.2 1.2 0 1 0 12 14.4 A 1.2 1.2 0 1 0 9.6 14.4 Z"/></g>
 </g>
</svg>
