<?xml version="1.0" encoding="UTF-8"?>
<svg xmlns="http://www.w3.org/2000/svg" width="24" height="24" viewBox="0 0 24 24">
 <g id="Notes"/>
 <g id="Guides">
  <line id="Capline-S" x1="2" y1="3" x2="22" y2="3" stroke="#27AAE1" stroke-width="0.05"/>
  <line id="Baseline-S" x1="2" y1="21" x2="22" y2="21" stroke="#27AAE1" stroke-width="0.05"/>
  <line id="Capline-M" x1="2" y1="3" x2="22" y2="3" stroke="#27AAE1" stroke-width="0.05"/>
  <line id="Baseline-M" x1="2" y1="21" x2="22" y2="21" stroke="#27AAE1" stroke-width="0.05"/>
  <line id="Capline-L" x1="2" y1="3" x2="22" y2="3" stroke="#27AAE1" stroke-width="0.05"/>
  <line id="Baseline-L" x1="2" y1="21" x2="22" y2="21" stroke="#27AAE1" stroke-width="0.05"/>
 </g>
 <g id="Symbols" fill="none" stroke="#000000" stroke-linecap="round" stroke-linejoin="round">
  <g id="Regular-S"><path d="M 7.76 18.78 A 8 8 0 1 1 16.24 18.78" stroke-width="2.4"/><path d="M14.04 20.16 17.30 20.48 15.18 17.08 Z" fill="#000000" stroke-width="0.6"/><path d="M 8.6 8.6 L 15.4 15.4" stroke-width="2.6"/></g>
  <g id="Regular-M"><path d="M 7.76 18.78 A 8 8 0 1 1 16.24 18.78" stroke-width="2.4"/><path d="M14.04 20.16 17.30 20.48 15.18 17.08 Z" fill="#000000" stroke-width="0.6"/><path d="M 8.6 8.6 L 15.4 15.4" stroke-width="2.6"/></g>
  <g id="Regular-L"><path d="M 7.76 18.78 A 8 8 0 1 1 16.24 18.78" stroke-width="2.4"/><path d="M14.04 20.16 17.30 20.48 15.18 17.08 Z" fill="#000000" stroke-width="0.6"/><path d="M 8.6 8.6 L 15.4 15.4" stroke-width="2.6"/></g>
 </g>
</svg>
